<?xml version="1.0" standalone="no"?>
<!DOCTYPE svg PUBLIC "-//W3C//DTD SVG 20010904//EN"
 "http://www.w3.org/TR/2001/REC-SVG-20010904/DTD/svg10.dtd">
<svg version="1.0" xmlns="http://www.w3.org/2000/svg"
 width="1250.000000pt" height="554.000000pt" viewBox="0 0 1250.000000 554.000000"
 preserveAspectRatio="xMidYMid meet">
<metadata>
Created by potrace 1.15, written by Peter Selinger 2001-2017
</metadata>
<g transform="translate(0.000000,554.000000) scale(0.100000,-0.100000)"
fill="#000000" stroke="none">
<path d="M6115 5278 c-322 -25 -664 -142 -916 -314 -295 -200 -503 -429 -662
-726 -83 -154 -159 -366 -187 -518 -4 -25 -12 -67 -18 -95 -6 -27 -14 -104
-18 -170 -14 -256 52 -536 161 -679 18 -23 55 -51 96 -72 45 -22 70 -41 74
-56 13 -39 66 -150 108 -223 149 -260 388 -505 642 -657 85 -51 257 -131 345
-161 80 -27 252 -68 362 -87 87 -15 399 -15 503 0 427 64 774 237 1076 539
156 156 254 291 349 481 27 53 56 116 65 140 45 128 75 222 75 240 0 11 6 39
14 62 23 67 46 275 46 405 -1 139 -42 428 -71 498 -4 11 -17 49 -28 85 -80
258 -237 519 -445 739 -181 191 -493 384 -757 469 -215 70 -294 86 -489 102
-148 11 -164 11 -325 -2z m429 -313 c165 -22 320 -61 426 -107 200 -88 333
-169 469 -286 189 -163 356 -393 445 -612 15 -36 31 -74 35 -85 5 -11 17 -49
26 -85 9 -36 21 -76 26 -90 23 -66 42 -245 42 -385 0 -139 -18 -304 -43 -390
-4 -16 -16 -57 -25 -90 -9 -33 -23 -75 -31 -93 -8 -18 -14 -37 -14 -42 0 -32
-126 -260 -207 -375 -153 -217 -418 -436 -658 -544 -38 -18 -82 -38 -97 -46
-14 -8 -35 -15 -45 -15 -10 0 -23 -4 -29 -9 -5 -6 -27 -14 -49 -20 -22 -5 -76
-18 -120 -29 -273 -67 -541 -67 -825 1 -131 32 -151 37 -168 46 -9 5 -42 19
-72 31 -291 117 -553 315 -741 560 -98 128 -219 336 -219 378 0 11 11 40 25
65 15 26 32 83 41 134 16 89 16 99 -2 475 -22 449 185 912 546 1223 122 105
196 155 336 226 166 84 335 136 509 158 50 6 101 13 115 15 61 8 204 4 304 -9z"/>
<path d="M3976 695 c-22 -8 -53 -27 -70 -44 -25 -25 -30 -40 -34 -89 -4 -55
-2 -61 28 -95 32 -37 78 -56 208 -87 107 -25 147 -99 82 -154 -81 -67 -245
-27 -265 65 -6 25 -11 29 -41 29 -30 0 -34 -3 -34 -25 0 -70 57 -135 139 -159
138 -40 271 10 302 114 27 90 -22 166 -127 195 -173 48 -194 56 -210 80 -38
58 20 115 116 115 69 0 114 -25 129 -72 10 -31 14 -34 46 -30 39 5 42 15 21
65 -37 90 -175 133 -290 92z"/>
<path d="M7356 690 c-88 -34 -135 -97 -155 -204 -19 -100 8 -218 64 -284 46
-55 98 -76 190 -76 120 0 186 42 230 147 16 39 15 42 -30 51 -28 6 -32 3 -55
-41 -31 -59 -65 -84 -123 -90 -137 -16 -227 109 -199 274 13 79 43 128 95 154
84 44 186 18 221 -56 17 -35 29 -39 73 -27 22 7 22 7 4 47 -49 109 -187 155
-315 105z"/>
<path d="M9100 701 c-131 -43 -197 -152 -188 -310 7 -120 51 -192 148 -242 55
-29 173 -32 231 -6 96 43 150 127 157 248 8 135 -43 241 -142 291 -44 23 -161
34 -206 19z m178 -87 c112 -66 127 -281 26 -376 -94 -87 -239 -55 -295 67 -35
75 -20 224 28 277 56 62 165 77 241 32z"/>
<path d="M10138 695 c-58 -21 -102 -60 -133 -117 -38 -70 -47 -197 -20 -279
38 -113 159 -190 279 -175 78 9 155 52 193 109 82 122 62 325 -40 412 -71 61
-191 82 -279 50z m175 -66 c80 -41 123 -130 114 -235 -6 -77 -30 -128 -80
-168 -35 -28 -46 -31 -106 -31 -86 0 -137 30 -172 102 -43 88 -23 241 37 295
52 46 154 64 207 37z"/>
<path d="M10767 696 c-64 -23 -111 -61 -139 -112 -69 -127 -52 -300 39 -386
81 -77 235 -97 348 -45 95 44 95 44 95 164 l0 103 -120 0 -120 0 0 -35 0 -35
86 0 85 0 -3 -52 c-3 -51 -4 -52 -50 -75 -100 -50 -195 -39 -264 31 -31 31
-44 54 -52 92 -23 105 7 209 74 260 34 27 44 29 120 29 81 0 84 -1 118 -34 20
-19 36 -40 36 -45 1 -28 16 -36 48 -25 35 12 36 22 6 81 -42 81 -196 123 -307
84z"/>
<path d="M12080 697 c-86 -29 -131 -102 -109 -181 16 -59 57 -86 185 -122 129
-37 164 -60 164 -107 0 -69 -100 -114 -196 -87 -48 14 -104 67 -104 100 0 16
-7 20 -34 20 -19 0 -37 -4 -40 -8 -12 -20 19 -90 58 -128 60 -61 160 -79 262
-49 71 21 115 69 122 134 6 65 -2 92 -35 126 -34 33 -51 41 -167 71 -104 27
-140 49 -144 90 -5 47 35 77 110 82 78 6 120 -15 142 -67 13 -35 17 -37 50
-33 20 2 36 8 36 12 0 23 -26 79 -48 102 -47 51 -168 73 -252 45z"/>
<path d="M180 665 l0 -34 149 -3 150 -3 -170 -212 c-146 -184 -169 -218 -169
-248 l0 -35 225 0 225 0 0 35 0 35 -176 2 -175 3 170 210 c153 188 171 214
171 248 l0 37 -200 0 -200 0 0 -35z"/>
<path d="M827 693 c-3 -4 -51 -127 -107 -273 -56 -146 -104 -271 -107 -278 -4
-10 5 -13 38 -10 l43 3 29 83 30 83 120 -3 120 -3 31 -82 31 -83 43 0 c23 0
42 3 42 8 0 4 -51 131 -113 282 l-113 275 -41 3 c-23 2 -43 -1 -46 -5z m53
-87 c0 -7 18 -61 40 -120 22 -58 40 -108 40 -111 0 -3 -41 -5 -91 -5 -83 0
-90 2 -84 18 4 9 24 65 44 124 33 97 51 131 51 94z"/>
<path d="M1200 416 l0 -286 40 0 40 0 0 125 0 125 70 0 c63 0 72 -3 102 -29
18 -16 60 -72 93 -125 l60 -95 48 0 c26 -1 47 2 47 5 0 16 -130 203 -157 224
l-30 25 51 25 c69 34 91 67 90 134 -1 63 -29 115 -71 136 -20 10 -80 15 -205
18 l-178 4 0 -286z m302 214 c42 -12 78 -52 78 -86 0 -13 -13 -38 -29 -56
l-29 -33 -121 -4 -121 -3 0 96 0 96 93 0 c50 0 109 -5 129 -10z"/>
<path d="M1927 693 c-3 -4 -51 -127 -107 -273 -56 -146 -104 -271 -107 -278
-4 -10 5 -13 38 -10 l43 3 29 83 30 83 120 -3 120 -3 31 -82 31 -83 43 0 c23
0 42 3 42 8 0 4 -51 131 -113 282 l-113 275 -41 3 c-23 2 -43 -1 -46 -5z m53
-87 c0 -7 18 -61 40 -120 22 -58 40 -108 40 -111 0 -3 -41 -5 -91 -5 -83 0
-90 2 -84 18 4 9 24 65 44 124 33 97 51 131 51 94z"/>
<path d="M2200 665 l0 -35 95 0 95 0 0 -250 0 -250 35 0 35 0 0 250 0 250 95
0 95 0 0 35 0 35 -225 0 -225 0 0 -35z"/>
<path d="M2730 415 l0 -285 35 0 34 0 3 133 3 132 148 3 147 3 0 -136 0 -135
35 0 35 0 0 285 0 285 -35 0 -35 0 0 -115 0 -115 -150 0 -150 0 0 115 0 115
-35 0 -35 0 0 -285z"/>
<path d="M3302 478 c3 -245 7 -260 68 -311 62 -53 203 -60 285 -14 28 15 47
37 65 72 24 48 25 60 28 263 l4 212 -41 0 -41 0 -1 -197 c-1 -264 -14 -296
-124 -309 -65 -8 -118 13 -145 58 -18 30 -20 50 -20 241 l0 207 -41 0 -41 0 4
-222z"/>
<path d="M4360 665 l0 -35 90 0 90 0 0 -250 0 -250 40 0 40 0 0 250 0 250 95
0 95 0 0 35 0 35 -225 0 -225 0 0 -35z"/>
<path d="M4880 416 l0 -286 40 0 40 0 0 125 0 125 70 0 c63 0 72 -3 102 -29
18 -16 60 -72 93 -125 l60 -95 48 0 c26 -1 47 2 47 5 0 16 -130 203 -157 224
l-30 25 51 25 c69 34 91 67 90 134 -1 63 -29 115 -71 136 -20 10 -80 15 -205
18 l-178 4 0 -286z m302 214 c42 -12 78 -52 78 -86 0 -13 -13 -38 -29 -56
l-29 -33 -121 -4 -121 -3 0 96 0 96 93 0 c50 0 109 -5 129 -10z"/>
<path d="M5607 693 c-3 -4 -51 -127 -107 -273 -56 -146 -104 -271 -107 -278
-4 -10 5 -13 38 -10 l43 3 29 83 30 83 120 -3 120 -3 31 -82 31 -83 43 0 c23
0 42 3 42 8 0 4 -51 131 -113 282 l-113 275 -41 3 c-23 2 -43 -1 -46 -5z m53
-87 c0 -7 18 -61 40 -120 22 -58 40 -108 40 -111 0 -3 -41 -5 -91 -5 -83 0
-90 2 -84 18 4 9 24 65 44 124 33 97 51 131 51 94z"/>
<path d="M6160 665 l0 -35 95 0 95 0 0 -250 0 -250 35 0 35 0 0 250 0 250 95
0 95 0 0 35 0 35 -225 0 -225 0 0 -35z"/>
<path d="M6690 415 l0 -285 210 0 210 0 0 35 0 35 -175 0 -175 0 0 95 0 95
160 0 160 0 0 35 0 35 -160 0 -160 0 0 85 0 85 170 0 170 0 0 35 0 35 -205 0
-205 0 0 -285z"/>
<path d="M7790 415 l0 -285 35 0 34 0 3 133 3 132 148 3 147 3 0 -136 0 -135
35 0 35 0 0 285 0 285 -35 0 -35 0 0 -115 0 -115 -150 0 -150 0 0 115 0 115
-35 0 -35 0 0 -285z"/>
<path d="M8360 415 l0 -285 35 0 35 0 2 218 3 217 145 -217 145 -217 38 -1 37
0 0 285 0 285 -35 0 -35 0 -2 -214 -3 -215 -145 215 -144 214 -38 0 -38 0 0
-285z"/>
<path d="M9540 415 l0 -285 180 0 180 0 0 35 0 35 -140 0 -140 0 0 250 0 250
-40 0 -40 0 0 -285z"/>
<path d="M11230 415 l0 -285 40 0 40 0 0 285 0 285 -40 0 -40 0 0 -285z"/>
<path d="M11440 415 l0 -285 210 0 210 0 0 35 0 35 -170 0 -170 0 0 95 0 95
155 0 155 0 0 35 0 35 -155 0 -155 0 0 85 0 85 165 0 165 0 0 35 0 35 -205 0
-205 0 0 -285z"/>
</g>
</svg>
